<svg xmlns="http://www.w3.org/2000/svg" id="b" viewBox="0 0 728.6 370.32"><defs><style>.d{fill:#152484;stroke-width:0}</style></defs><g id="c"><path d="M136.83 55.32c.34.23.46.22.78.48.56.44 1.08.92 1.62 1.38.21.18.43.34.65.5.45.34.54.67.33 1.2-.16.4-.27.82-.42 1.23-.1.26-.18.54-.35.73-.31.33-.47.72-.63 1.13-.16.4-.42.75-.6 1.14-.26.54-.51 1.08-.71 1.64-.39 1.1-.77 2.2-1.11 3.32-.18.59-.3 1.2-.37 1.81-.04.35-.08.65-.25.97-.3.55-.34 1.18-.37 1.8-.01.36-.12.71-.2 1.07-.21.91-.43 1.82-.63 2.74-.03.13.05.27.04.4-.02.33-.06.67-.11 1-.02.13-.16.24-.17.37-.07.7-.2 1.38-.38 2.07-.17.68.37 4.24-.01 4.64-.06.07.04.44-.06 1.06-.05.33-.03.69.05 1.02.12.47.03 1.95-.1 2.4-.26.93-.14 4.55-.11 4.82.05.52-.1 1.09-.09 1.61.02.96-.14 1.88-.12 2.84 0 .33-.02 1.26.1 1.49.26.49-.05 1.59.76 1.14.34-.19.63-.54.95-.77.31-.22.8-.28 1.09-.53.34-.31.93-.78 1.26-1.1.33-.32.73-.27 1.07-.58.32-.29.64-.63 1.02-.8.86-.4 1.19-.7 1.95-1.2.57-.38 1.13-.76 1.7-1.15.1-.06 1.21-1.04 1.62-1.52.24-.28.44-.58.67-.86.21-.24.41-.51.66-.68.29-.2.54-.37.71-.71.09-.19.39-.28.66-.46.49-1.3.39-2.65-.18-4-.1-.23-.15-.48-.17-.73-.07-.88-.3-1.71-.61-2.53-.26-.7-.52-1.4-.28-2.2.16-.54.14-1.13.21-1.7.1-.83.31-1.61.73-2.35.5-.9.88-1.87 1.42-2.74.63-1 1.31-2 2.11-2.87.54-.59 3.25-2.04 3.38-2.85.01-.1.22-.2.36-.23.12-.02.67-.98 1.06-1.34.21-.2.3-.52.5-.89.1-.03.31-.09.54-.15.04-.12.09-.22.11-.33.05-.27.18-.4.46-.39.39.01 1.06-.55 1.12-.57 1.05-.42 4.07-2.5 4.3-3.26.04-.12.15-.23.26-.31.54-.43 3.72-3.2 4.17-3.67.74-.8 1.55-1.54 2.34-2.29.11-.1.26-.23.39-.23.47 0 1.21-1.25 1.52-1.43.12-.07.22-.17.31-.27.54-.62 1.18-1.13 1.86-1.61.27-.19.45-.49.68-.74.77-.82 1.48-1.68 1.78-2.81.18-.66.4-1.31.6-1.96.27-.89.77-1.7 1.18-2.54.15-.31.31-.61.46-.92.17-.35.33-.7.48-1.06.56-1.33.67-2.63 1.05-4.01.27-.98 1.16-2.77 1.16-3.13.02-.95.27-4.66 1.13-6.16.06-.1.12-.21.21-.27.57-.41 2.5-.76 3.12-1.09 1.19-.62 3.72-.04 4.99.18.9.15 1.51.76 2.06 1.41.33.4.59.88.82 1.35.12.23.14.53.15.8.03.73.04 1.46.05 2.19 0 .14 0 .27-.01.41-.06.86-.14-.14-.18.72 0 .18.09.39.19.55.2.31.26.57-.03.86-.09.09-.13.24-.15.36-.06.36-.12.72-.16 1.08-.02.2-.17.8-.11.99.09.31.35 1.79.21 2.33-.12.45-.07 3.47-.14 3.91-.08.49-.01 1-.02 1.5 0 .16-.02.32-.04.48-.1.72-.04 1.97.39 2.48.22.25.09 2.06.09 2.44 0 .97-.06 1.95-.09 2.92 0 .11 0 .23.05.34.3.8.21 1.62.18 2.44-.03.82.02 1.65.04 2.47.02.66-.21 1.32.02 1.98-.31.78.02 1.58-.04 2.38-.07.88 0-3.27.04-2.38.05.9.11 1.78-.1 2.67-.03.11-.04.23-.02.34.29 1.22.05 2.41-.14 3.61-.03.2-.03.41-.05.62-.01.14-.29 1.35-.32 1.86-.05 1.01-.83 8.02-1.36 8.98-.21.39-.42 3.12-.32 3.74-.29.78-.15 2.43-.23 2.71-.08.29-.6 3.91-.61 4.32-.02.74-.51 2.26-.26 2.98.08.24.05.53.02.79-.1.91-.22 1.81-.34 2.71-.04.32-.1.63-.15.94-.01.09.21 3.12.02 3.87-.05.19.02.41.03.61 0 .36.06.73 0 1.08-.06.39-.03.72.24 1.02.25.28.3.58.21.96-.06.28 0 .58 0 .88 0 .2.03.41 0 .61-.08.82-.11 2.98 0 3.17.21.39.11 1.86.18 2.21.03.15.06.67-.05.74-.16 1.7.8 3.92.67 4.4-.12.43-.21.84-.13 1.28.06.37-.09.63-.43.77-.3.13-.52.31-.76.54-.4.38-1.78.7-2.15.67-.11 0-.26.15-.36.26-.33.36-.69.68-1.17.8-.15.04-.31.08-.47.07-.56-.01-1.13-.05-1.69-.05-.14 0-.3.1-.43.17-.3.16-.6.34-.9.5-.29.15-.61.15-.82-.11-.38-.47-.76-.96-1.05-1.48-.17-.3-.21-.69-.26-1.05-.16-1.27-1.05-5.16-1.02-5.26.19-.78-.32-1.46-.29-2.21 0-.16.02-.32.03-.48 0-.11-.23-1.16-.21-1.62.03-.72-.02-1.45-.05-2.18-.01-.23-.03-.48-.13-.67-.32-.58-.35-1.97-.48-3.75-.01-.18.02-.37 0-.55-.12-1.15.21-3.6.19-3.68.03-2.35.24-3.83.25-4.01.03-.62.06-1.23.1-1.85.02-.27.09-.55.07-.82-.05-.65.04-1.27.13-1.91.13-1.02.15-2.05.24-3.07.11-1.23-.04-2.29-.04-3.11 0-1.18.21-2.37.37-3.55.18-1.36 1.29-8.67 1.46-10.04.15-1.18.26-2.37.37-3.56.03-.38 0-.78 0-1.16 0-.39-.06-.78-.02-1.16.05-.57.04-1.12-.04-1.7-.1-.67.03-1.37.03-2.06 0-1.33-.06 2.39-.06 1.06 0-.55.08-1.09.08-1.64 0-.59-.04-1.17-.06-1.76-.14 0-.22-.02-.23 0-.42.72-1.17 1.12-1.7 1.73-.13.15-.32.26-.47.4-.18.16-.35.33-.52.51-.06.06-.09.17-.16.22-1.06.74-1.7 1.91-2.73 2.68-.31.23-.61.51-.96.66-.66.27-1.03.96-1.75 1.15-.22.06-.39.31-.57.49-.47.5-.89 1.04-1.58 1.26-.09.03-.16.15-.21.25-.36.64-1.3 1.25-1.52 1.36-.17.09-2.94 1.4-3.33 1.61-1.03.54-2.07 1.1-2.96 1.83-1.08.88-2.18 1.71-3.38 2.41-.66.39-1.34.72-1.85 1.32-.07.08-1.44.89-1.94 1.33-.39.34-.63.84-1.01 1.2-1 .94-1.87 2.02-3.04 2.78-.42.27-1.7.72-1.74 1.25-.04.53-.12.37-.08.89.03.32.69 1.11.83 1.41.1.22.86.57.84.78-.04.47.15.79.46 1.12.6 0 1.21-.03 1.82 0 .52.03 1.05.03 1.51.36.16.11 1.19.26 1.43.52.03.03.07.07.11.07.77 0 1.22.65 1.86.93.23.1 1.71.9 2.17 1.32.07.06.13.14.21.16.74.2.94.86 1.23 1.44.14.28.12.58-.07.85-.05.07-.12.16-.13.24-.03.48-.34.73-.75.88-.1.04-.19.12-.29.18 0 .08-.02.14-.02.21.02.49-2.21 2.01-2.74 2.63-.23.27-.37.64-.63.88-.38.35-2.16 1.89-2.34 2.11-.14.17-.98 1.56-1.56 1.82-.14.06-.3.18-.35.31-.18.45-1.79 1.19-2.11 1.58-.52.62-1 1.3-1.83 1.56-.09.03-1.94 1.22-2.46 2.15-.09.16-1.02.4-1.19.62-.12.16-.3.34-.48.37-.66.12-1.14.55-1.68.89-.19.12-.43.15-.64.24-.14.06-.31.12-.38.24-.13.22-.28.25-.51.25-.32 0-.88.63-.97.67-.71.26-1.19.84-1.76 1.28-.11.08-.25.14-.33.24-.34.43-2.52 2.16-2.9 2.27-.15.04-.27.16-.41.24-.37.22-.73.47-1.13.64-.51.21-1.04.36-1.56.52-.15.05-1.08.04-1.33.31-.14.14-.41.22-.62.22-.72-.01-1.4.15-2.08.36-.09.03-1.18.1-1.63.25-.41.13-.84.24-1.26.33-.39.09-.7-.04-.98-.34-.44-.47-.91-.9-1.36-1.36-.12-.13-.22-.29-.3-.45-.18-.35-.32-.71-.5-1.05-.54-1.03-1.1-2.05-1.64-3.09-.06-.12-.11-.27-.08-.39.06-.29-.01-.53-.16-.78-.08-.13-.08-.31-.08-.46-.01-.46-.39-1.66-.34-1.79.17-.39.06-.76-.03-1.14-.08-.35.32-1.31.33-1.48.04-1.05.09-2.11.08-3.16 0-1.42.14-2.83.28-4.24.05-.55.07-1.1.1-1.65.09-1.85.17-3.71.28-5.56.02-.29.14-.58.19-.87.05-.28.08-.57.12-.86 0-.07.15-1.11.06-1.57-.14-.68.12-1.31.22-1.96.07-.44.45-1.68.4-1.85-.14-.47.04-.91.11-1.35.08-.45.19-.89.21-1.34.05-1.06.26-2.08.57-3.09.11-.35.07-.73.16-1.08.13-.51.62-2.73.72-3.24.17-.87 1.04-3.19 1.33-4.39.17-.71.36-1.41.69-2.07.06-.12.1-.27.2-.36.53-.48 1.05-2.31 1.08-2.58.05-.59.26-1.1.71-1.51.11-.1.23-.24.24-.38.12-.97.63-1.78 1.17-2.54.58-.82 1.14-1.65 1.54-2.58.15-.36-1.57 0-1.85.07-1.01.22-4.41 1.05-4.82 1.34-.3.21-3.12 1.06-3.65 1.24-.06.02-1.33.73-1.91 1-.68.31-1.43.46-2.14.68-.21.07-1.78.83-2.37 1.11-.32.15-.71.15-1.07.21-.04 0-.09-.01-.14 0-1.64.41-3.31.25-4.97.28-1.31.02-2.32-.62-3.17-1.54-.23-.25-.38-.58-.6-.84-.33-.4-.68-.8-1.05-1.17-.39-.39-1.38-2.31-1.37-2.88.04-.23 1.18-.13 2.32-.53 1.49-.53 3.03-.9 4.43-1.68.98-.54 1.96-1.08 2.99-1.53 1.45-.64 2.76-1.52 4.16-2.26.59-.31 1.2-.57 1.8-.86 1.95-.97 3.91-1.89 5.94-2.7.92-.36 1.85-.62 2.79-.9.85-.26 1.67-.63 2.53-.87 1.65-.48 3.31-.9 4.98-1.29 1.45-.34 2.93-.6 4.38-.9.6-.13 1.2-.3 1.77-.54.64-.26 1.29-.26 1.96-.3.31-.02.62-.11.93-.18.11-.02.23-.11.33-.09.85.15 1.68-.09 2.52-.1.18 0 .37.05.53.12.86.37 1.74.72 2.57 1.14.44.22.81.59 1.22.86.71.47 1.08 1.15 1.29 1.95.15.57.39 1.12.54 1.7.06.23.07.55-.05.73-.41.66-.5 1.42-.73 2.14-.12.38-.33.63-.67.83-.76.44-1.52.8-2.45.78-.68-.02-3.41 1.05-3.82 1.12-.18.03-.36.17-.5.31-.35.36-.62.31-1.17.24-.47-.07-1.05.24-1.53.22-.09 0-.21-.02-.27.03-.48.44-4.46 1-4.2 1.17ZM243.36 123.13c-.6.16-3.41.89-3.51.94-1.77.38-2.47.48-5.59.47-.53-.26-1.21-.36-1.49-.9-.24-.47-.31-.36-.59-.81-.29-.48-.36-.54-.4-1.12-.07-1.22-.5-2.17-.02-3.31.26-.6.31-1.29.88-1.74.1-.08.14-.23.2-.35.37-.78 1.75-1.34 2.16-2.09 1.06-.48 3.62-2.34 3.78-2.59.8-1.15 5.38-5.99 5.87-7.27.31-.83 4.38-6.29 4.43-6.53.08-.38.4-.9.52-1.26.18-.58.18-.64-.34-1.06-.51.31-.82.44-1.36.68-.98.44-.84.52-1.88.82-.91.27-1.91 1.01-2.78 1.42-.37.18-.74.37-1.1.56-.96.5-9.02 4.3-9.44 4.54-.77.44-3.98 2.18-4.61 2.77-.55.52-.42.74-1.24.79-.27.02-.54.16-.81.14-.5-.02-.8.19-1.29.1-1.08-.2-1.04-.78-2.03-1.3-1.02-.53-1.74-1.31-2.17-2.38-.44-1.1-.75-2.22-.79-3.4-.01-.37.02-.73.05-1.1.02-.21.06-.41-.15-.55-.27-.19-.32-.5-.18-.73.1-.17 1.32-2.56 1.81-3.2.4-.53.98-.8 1.61-.99.23-.07.48-.17.65-.33.29-.26.61-.36.99-.41.86-.11 1.71-.28 2.56-.44.15-.03 3.27-1.28 3.41-1.35.6-.28 1.18-.61 1.8-.83 1.14-.42 2.32-.73 3.45-1.17.72-.29 2.14-1.07 2.88-1.2.67-.12.65-.13.66-.79.02-1.03.05-2.05.1-3.08.03-.57.1-1.13.15-1.7 0-.09.13-1.67-.03-2.3-.06-.24.04-.53.07-.79.04-.34.14-.67.13-1.01 0-.37-.17-.5-.53-.46-.32.04-.64.1-.94.21-.71.27-1.4.58-2.09.87-.13.05-.26.12-.39.12-1.03.06.31-.08-.57.35-.49.24-1.02.38-1.54.56-.17.06-.35.11-.52.15-.57.15-1.11.37-1.73.36-.36 0-.72.24-1.08.37-.25.09-.5.17-.76.25-.17.05-.36.07-.51.16-1 .58-2.08.95-3.2 1.21-.55.13-1.08.37-1.62.56-.11.04-.22.08-.33.1-.63.09-7.38 3.15-7.92 3.47-.45.27-.89.37-1.37.22-.29-.09-.53-.11-.77.09-.07.06-.17.12-.25.11-.77-.14-1.46.33-2.22.28-.55-.04-.93.39-1.43.07-.26-.17-.65-.17-.98-.22-.45-.07-.64-.92-1.08-1.02-.76-.19-1.87-2.09-2.32-2.47-.67-.57-1.11-1.33-1.44-2.14a1.2 1.2 0 0 0-.24-.41c-.32-.3-.49-.68-.53-1.09-.17-1.59-.12-2.42 1.19-3.32.06-.04.11-.09.17-.11 1.05-.31 1.95-.99 3.05-1.2.54-.1 1.04-.45 1.55-.68.14-.07.28-.16.43-.21.77-.28 1.54-.58 2.32-.81.81-.24 1.65-.39 2.47-.6.4-.1.78-.26 1.17-.38 1.14-.33 2.26-.72 3.45-.89 1.06-.15 4.65-1.63 5.71-1.71 1.12-.09 3.77-1.32 4.33-1.43.54-.11 1.08-.17 1.61-.29.42-.1 2-.49 2.4-.67 1.1-.49 2.88-.51 3.14-.82.25-.3 1.82-.41 2.15-.81.16-.19.52-.27.8-.3.31-.03.56-.12.82-.3.29-.2.64-.33.97-.48.06-.03.15-.01.2-.05.51-.5 1.29-.36 1.91-.57.21-.07.38-.22.57-.33.19-.11 2.18-.65 2.96-.88.64-.19 3.14-1.39 3.95-1.72.5-.2 1.68-.16 1.97-.65.22-.39 1.76-1.16 2.42-1.41.92-.35 1.81-.77 2.71-1.15.42-.17.85-.34 1.29-.45.23-.05 2.1-.78 2.86-1.06.36-.13.75-.22 1.13-.29.91-.18 4.51-1.37 5.3-1.94 1.81-.42 2.61-.5 4.43-.85.75-.15 1.56-.15 2.32-.06 1.04.11 2.11.14 3.1.57.27.12.56.22.8.38.84.56.88.92 1.48 1.77.8 1.12 3.17 7.44 2.05 7.36-.31-.02-.42.12-.73.19-.71.16-2.53.59-3.24.64-.57.04-1.13-.01-1.69.17-.34.11-.68.31-1.03.33-.7.04-7.71 2.09-8.14 2.44-.05.04-.09.12-.14.15-1.3.69-2.44 1.68-3.91 2.06-.35.09-.71.21-1.02.4-1.06.66-4.41 1.7-5.5 2.28-.12.06-.26.09-.4.1-.39.04-.66.25-.94.52-.27.26-.6.49-.95.64-.26.12-.46.26-.64.48-.26.31-.59.56-.89.85-.28.27-.62.5-.81.82-.39.67-.72 1.38-1.05 2.09-.27.56-.52 1.12-.77 1.68-.06.12-.08.26-.13.39-.17.42-.76.81-.82.98-.33 1.03-.67 2.05-1 3.07-.03.1-.03.22-.05.39.17-.03.3-.03.42-.08.57-.24 1.14-.48 1.71-.73.49-.22 3.77-1.27 3.96-1.35 1.42-.57 5.03-1.59 6.56-1.6.39 0 .78-.15 1.15-.11.99.1 2.02.03 2.9.65.16.11.39.13.58.21.78.31 1.44.77 1.93 1.47.31.45.75.78.94 1.33.29.85.23 2.96.23 3.82 0 .32-.2.65-.33.96-.39.94-.54 1.99-1.25 2.8-.12.13-2.01 1.22-2.1 1.38-.11.2-.2.43-.36.58-1.18 1.15-4.1 3.85-5.03 5.17-.16.22-.23.5-.38.73-.25.41-5.66 5.74-5.78 5.98-.31.61-3.29 3.6-3.18 3.74.21.24 1.32-.32 1.53-.47.75-.55 3-1.14 3.83-1.36.73-.19 3.64-1.72 4.36-1.97.86-.31 1.83-.33 2.76-.46.43-.06.87-.03 1.29-.09.42-.05.73.05 1.04.36.54.52.84 1.12.89 1.86.02.25.1.49.16.74.12.48.11.92-.05 1.41-.33 3.24-1.82 3.94-1.94 4.57-.05.25-1.44 1.5-1.57 1.69-.45.69-2.24 1.46-2.42 2.27-.05.25-2.53 2.18-2.82 2.75-.34.67-1.12 1.79-1.39 2.5-.13.34-.2.7-.3 1.06-.14.51-.3 1.01-.4 1.53-.13.69-.21 1.4-.3 2.09-.04.27-.03.55-.06.82-.07.57.1 1.62.06 2.19-.05.74 1.17 1.29 1.93 1.3.52 0 1.06-.03 1.57-.15 1.71-.43 3.39-.97 5.01-1.69.58-.26 1.2-.45 1.79-.7 2.13-.88 4.17-1.95 5.94-3.42 1.55-1.28 3.08-2.61 4.36-4.19.56-.69 1.2-1.33 1.7-2.06.66-.96 1.26-1.97 1.83-2.99.45-.82.81-1.69 1.2-2.54.07-.16.07-.36.14-.53.13-.36.24-.74.44-1.06.32-.49.92-.47 1.26.02.16.22.24.5.38.73.15.25.33.48.49.72.09.13.19.26.24.4.1.3.13.64.28.91.29.51.3 1.04.22 1.59-.11.77-.22 1.54-.34 2.31-.05.32-.13.63-.16.95-.13 1.76-.77 3.35-1.68 4.83-.69 1.13-1.47 2.22-2.24 3.3-.38.54-.88 1-1.26 1.53-.35.48-1.48 1.5-1.49 1.51-.56 1.04-1.56 1.12-2.27 1.99-.17.21-.43.33-.66.49-.28.19-.57.38-.86.56-.11.07-.25.19-.36.18-.52-.05-.9.18-1.3.48-.26.2-.64.22-.96.36-.39.17-.77.38-1.15.57-.32.16-4.89 2.04-5.6 2.12-.37.04-.71.31-1.06.47-.17.07-1.86.51-2.47.86-.18.1-.38.17-.58.21-1.42.24-2.83.52-4.26.67-1.27.13-2.56.1-3.82-.23-.4-.1-.82-.12-1.22-.19-.58-.1-1.17-.2-1.75-.31-.1-.02-.19-.11-.29-.18-.09-.06-.18-.18-.28-.19-.6-.07-1.07-.47-1.61-.67-.75-.28-1.29-.78-1.78-1.36-.23-.28-.41-.62-.66-.88-.55-.57-.76-1.3-.91-2.03-.31-1.6-.48-3.22-.1-4.85.03-.13.03-.27.02-.41-.01-.45-.07-.91-.03-1.36.1-1.07.25-2.14.36-3.21.04-.45 0-.91 0-1.46ZM351.48 57.92c-.13.19-.26.35-.34.53-.16.35-.39.52-.78.67-.47.18-.06.2-.44.56-.86.82-1.06 1.22-1.23 1.61-.13.3-.83.89-1.05 1.08-.35.29-.71.58-1.11.79-.22.12-3.42 2.88-3.76 3.27-.84.98-7.27 5.63-7.79 5.91-.19.1-.84.49-1.22.72-.8.48-1.54 1.08-2.37 1.46-1.7.78-3.33 1.77-5.17 2.21-.09.02-.21.03-.25.09-.36.54-5.06.38-5.73.77-.37.81.29 1.77-.07 2.58-.11.25-.04 1.35-.11 1.62-.23.98.17 2.29.05 3.3-.07.59-.02 1.57-.22 2.15-.23.67-.45 1.69-.7 2.36-.22.58-.99 2.38-.93 2.75.07.47-.98 2.3-1.23 2.82-.2.4-.29.86-.45 1.28-.15.41-.34.8-.5 1.2-.11.28-.88 1.1-1.2 1.53-.11.15-.19.31-.26.48-.78 1.81-2.19 3.08-3.69 4.26-.26.21-.61.31-.93.43-.44.18-.92.29-1.34.51-.86.48-1.72.56-2.64.21-.14-.05-1.55.26-2.08.45-.76.27-1.53.43-2.34.42-.91-.01-1.67-.44-2.47-.76-.16-.06-.28-.22-.42-.34-.3-.25-.58-.51-.89-.75-1.1-.87-2.36-1.99-2.65-3.41-.07-.33-.91-2.46-1.17-3.39-.11-.4-.25-.79-.33-1.19a7.5 7.5 0 0 1-.14-1.16c-.02-.48.04-.97-.25-1.4a.326.326 0 0 1-.04-.13c0-1.28-.51-2.5-.43-3.79 0-.09 0-.2.04-.27-.05-2.5.21-4.24.26-5.34.04-.8.14-1.59.28-2.38.07-.39.35-.75.4-1.14.05-.36-.16-.76-.12-1.13.11-.98.52-3.32.51-3.53-.03-.62.14-1.22.2-1.82.1-.91.42-1.71.77-2.53.21-.5.3-1.06.46-1.58.06-.19.16-.38.24-.56.09-.21.19-.41.26-.62.21-.63.39-1.27.61-1.9.07-.21.21-.43.38-.56.64-2.01.94-2.67 1.05-2.82.39-.53 2.2-2.53 3.02-2.77.4-.3.81-.64 1.27-.8.68-.24 1.41-.38 2.12-.51.52-.09 1.05-.08 1.57-.11.21-.01.42-.04.62 0 1.25.22 2.49.54 3.44 1.41.56.51 2.65 2.79 2.91 3.29.24.47.72 3.08 1.68 3.42.76.26 1.35.82 1.85 1.48.52.69 1.26.87 2.07.59.15-.05 2.16-.79 2.91-1.33.13-.09.24-.24.38-.28.7-.19 1.28-.68 1.65-1.19.47-.64 1.1-1 1.66-1.48.92-.78 1.78-1.63 2.7-2.43 1.24-1.08 2.52-2.12 3.76-3.2.71-.62 1.36-1.3 2.04-1.94.37-.34.73-.7 1.14-.99 2.29-1.61 4.24-4.09 6.43-5.82.23-.18.49-.34.73-.52.94-.76 3.24-2.77 4.2-3.5.52-.4 1.29-1.38 1.43-1.22 1.14-1.29 1.58-.79 2.15-1.26.13-.11.56.48.96-1.14.31-.44 1.22-4.82 1.28-5.24.07-.48.23-.88.57-1.22.27-.26.28-3.16 1.19-3.57.14-.06 1.07-.59 1.21-.66.22-.11 2.5-.68 3.12-.64.09 0 .21.03.27-.01.79-.55 1.57-.12 2.31.08.86.23 1.7.59 2.47 1.03.61.34 1.1.89 1.64 1.35.19.16.37.34.57.49.35.27.72.51.69 1.03 0 .06.02.15.06.19.79.61.74 1.7 1.37 2.39.03.52.1 1.05.06 1.57-.03.45-.19 3.11-.28 3.56-.03.15.04 1.27.04 1.43.01.51-1.85 8.92-1.88 8.99-.33.69-.04 1.4-.07 2.1-.09 1.99-.16 3.99-.28 5.98-.05.72-.24 1.44-.36 2.16-.06.38-.09.77-.14 1.15l-.3 2.53c-.03.32-.03.64-.07.95-.08.61-.17 1.21-.26 1.82-.11.73-.34 1.45-.34 2.17.01 1-.22 1.94-.36 2.91-.08.56-.03 1.14-.03 1.71 0 .14.02.28-.01.41-.2.96-.45 1.92-.62 2.89-.11.67-.06 1.38-.18 2.05-.33 1.7-.08 3.43-.3 5.14-.03.23-.1.45-.12.68-.04.34-.04 2.74-.19 3.59-.05.27-.07.54-.06.81 0 .94.02 1.88.05 2.82 0 .23.01.47.11.67.27.59.26 1.2.23 1.82l-.12 2.6v.07c.12 1.16.9 4.58 1.11 5.73.08.45.24.88.36 1.32.23.84.45 1.68.67 2.52.01.04.03.09.02.13-.19.72.19 1.34.37 1.99.13.48.28.97.34 1.47.15 1.2.63 2.29 1 3.42.08.25.08.54.13.8.04.22.07.45.14.66.15.5.25 1.03.47 1.51 2.72 5.83 0 1.82-.63.93-.28.07-.33.93-.59 1.06-.52.28-1.37-.49-1.86-.09-.1.08-.51-.06-.65-.22-.64-.73-1.5-.71-2.33-.68-.4.01-.65-.09-.87-.4-.15-.23-.33-.44-.52-.64-.09-.09-1.31-.32-1.77-.25-.46.06-.81-.08-1.14-.35-.57-.46-.96-1.06-1.24-1.72-.52-1.25-1.09-2.48-1.19-3.87-.01-.17-.13-.34-.18-.51-.1-.32-.19-.65-.26-.98-.04-.15-.01-.32-.06-.47-.69-2.41-1.91-8.67-2.04-9.63-.2-1.41-.57-4.87-.66-5.84-.03-.36-.11-.73-.11-1.09 0-.53-.19-2.01-.17-2.23.05-.57-.05-1.32-.05-1.89.02-1.65-.02-3.31 0-4.96 0-.52.12-3.17-.01-4.09-.07-.49.05-1 .09-1.5.07-.96.07-3.83.17-4.79.06-.57-.03-5.19-.02-5.28.05-.57.18-1.15.11-1.7-.15-1.11.08-2.14.37-3.18.04-.16.03-.39-.06-.51-.22-.32-.2-.65-.16-.99.15-1.16.32-2.31.49-3.47.03-.18.07-.37.18-.51.26-.34.28-.71.24-1.11-.03-.32 0-.64-.02-.96 0-.24.09-.52-.29-.7Zm-47.2 36.25c.28-.12.49.18.64.06.53-.39.73-.33 1.28-.69.43-.28.92-1.5 1-1.97.05-.27.12-.54.24-.78.79-1.55 1.55-3.11 1.95-4.82.09-.4.27-.78.36-1.18.19-.85.39-1.7.52-2.56.17-1.18.28-2.36.39-3.55.02-.16-.08-.36-.18-.5-.26-.37-.4-.76-.43-1.21-.04-.52-.27-.93-.69-1.28-.53-.45-1.12-.48-1.74-.46-.91.02-1.2.22-1.28 1.09-.1 1.14-.54 2.18-.77 3.27-.25 1.19-.58 2.36-.79 3.55-.1.55-.26 2.35-.46 2.79-.04.1-.02.22-.03.34l-.18 1.98c-.05.61-.14 1.23-.13 1.84 0 1.03.06 2.06.11 3.09.02.31.11.61.18 1ZM247.2 37.17c-.38.38-3.8 1.32-4.17 1.7-.06.06-.11.16-.18.2-.52.27-1.04.55-1.58.77-.72.29-1.45.52-2.18.77-.15.05-.31.08-.47.09-.34.02-.68.05-1.02.03-.31-.01-.64-.05-.94-.13-1.1-.31-2.75-.14-3.78-.62-.26-.12-.51-.17-.69.04-.1.12-.07.37-.09.55-.02.23-.03.45-.06.68-.15 1.16-.16 2.32.03 3.48.18 1.07.14 2.14.22 3.21.08 1.05.29 2.09.52 3.11.18.83.37 1.65.28 2.51-.02.18.02.36.03.54 0 .13.04.3-.02.4-.54.9-.73 1.97-1.4 2.82-.44.56-.88 1.05-1.6 1.21-1.08.24-2.12.41-3.22-.06-.69-.3-2.48-.26-3.15-.61-.69-.37-1.14-.9-1.44-1.59-.15-.34-.25-.7-.43-1.01-.42-.74-.5-1.56-.58-2.38-.03-.32-.05-.65-.17-.94-.27-.64-.26-1.29-.21-1.96.04-.5.04-.99.05-1.49v-.3c0-.13.79-4.77.59-6.06-.12-.78.04-1.59.07-2.39.01-.38 0-.77 0-1.15v-.48c0-.04.05-.09.04-.13-.15-.93.22-1.83.2-2.75 0-.14 0-.28.03-.41.23-.93.75-3.07.74-3.2-.06-.86-.14-1.73-.2-2.59-.01-.14 0-.27.01-.41.07-.59.17-1.17.23-1.76.02-.25 0-.51-.07-.75-.16-.48-.19-.93 0-1.41a.69.69 0 0 0 0-.47c-.27-.71-.09-1.41 0-2.11.11-.84.26-1.68.43-2.51.13-.6.29-1.2.48-1.79.22-.65.46-1.28.57-1.97.09-.58.42-3.45.53-4.38.02-.16-.03-.32-.02-.47.02-.34-.03-.71.1-1.01.25-.61.56-1.2.89-1.78.19-.34.56-.47.94-.49.55-.03 1.86-.08 2.41-.05 1.13.07 2.08.53 2.95 1.29.53.46 1.22.74 1.65 1.33 1.04.41 1.16 1.44 1.16 2.32 0 .93-.2 1.77-.36 2.69-.07.41-.3.81-.53 1.17-.43.7-.65 1.46-.77 2.26-.15.97-.27 1.95-.4 2.92-.02.14-.04.28-.11.4-.47.85-.05 3.94-.32 4.58-.06.15.04.4.12.58.16.36.18.72.03 1.07-.13.3-.07.55.02.85.15.5.21 1.02.31 1.57.08-.03.21-.06.31-.13.58-.49 4.02-2.12 4.6-2.61.33-.28.63-.6 1-.82.56-.33 1.35-.51 1.68-1.04.34-.54 1.57-1.12 2.1-1.46.39-.25.64-.61.92-.97.43-.56 1.07-.97 1.65-1.42.34-.27.96-.66 1.32-.9.13-.09.27-.17.41-.24.16-.08.37-.11.5-.22.57-.48.59-.89 1.27-1.15.43-.16.61-.53.65-.98.08-.91.26-2.83.25-2.87-.24-.85-.05-1.72-.09-2.57-.03-.54.08-1.09.19-1.63.13-.69.09-.76.2-1.15.14-.51.32-1.01.39-1.52.17-1.09.48-2.14.85-3.18.19-.51.29-1.06.39-1.6.08-.41.22-.77.47-1.12.36-.52.66-1.09.92-1.66.15-.33.33-.59.64-.77.99-.55 2.04-.79 3.17-.65.31.04.64.04.95 0 .89-.1 1.69.21 2.41.67.87.56 1.67 1.2 2.36 1.99.53.61.73 1.37 1.08 2.06.09.18.08.46.03.68-.16.64-.33 1.28-.55 1.9-.16.48-.4.93-.61 1.39-.07.15-.08.33-.25.89-.3.98-1.05 3.43-1 3.66.15.64.17.64.04 1.28 1.56-.23 3.51-.78 4.37-1 1.07-.28 2.17-.38 3.27-.32.4.02.79.2 1.18.32.26.08.51.22.77.27.3.06.51.2.62.48.2.48.46.95.6 1.45.17.63.27 1.29.35 1.94.04.29.13.46.41.56.44.15.61.46.52.91 0 .04-.02.1 0 .14.24.7.07 1.43.11 2.14 0 .2-.02.42-.11.59-.34.64-.59 1.37-1.43 1.56-.08.02-.16.09-.22.16-.36.45-.81.72-1.39.8-.18.03-1.15.81-1.51.99-.63.32-1.29.58-1.94.86-.1.05-1 .49-1.64.75-1.17.47-2 1.06-3.16 1.56-.1.04-.23.09-.29.17-.59.82-1.47 1.28-2.25 1.86-.46.34-.63.86-.75 1.41-.13.58-.76 8.29-.72 9.59 0 .18-.02.36-.04.55-.04.56.06.7.62.77.5.07 1 .12 1.51.14.44.02.79.18 1.09.49.27.28.59.51.86.79.21.23.39.5.56.76.06.09.07.22.12.32.93.28-.12 3.8-1.05 3.53-.99.68-2 1.29-3.06 1.84-.1.05-.21.11-.28.2-1.04 1.16-2.49 1.6-3.84 2.21-.44.2-1.69.64-2.13.83-.5.22-1.5.27-2.01.48-.59.24-1.74.37-2.33.61-.09.03-.17.11-.25.11-.9-.02-2.38.45-3.24.55-.4.05-1.29.44-1.65.25-.57-.29-1.36-.04-1.95-.29-.71-.3-1.14-.82-1.4-1.52-.13-.34-.22-.7-.36-1.04-.19-.44-.25-.86-.06-1.33.24-.59.44-1.17.96-1.63.84-.75 1.87-1.15 2.8-1.74.62-.39 3.77-1.35 4.42-1.7.81-.44 1.16-1.27.94-2.19-.24-1.05-.53-3.05-.51-3.43.03-.77-.02-2.92-.05-4.01-.06-.03-.12-.07-.17-.1ZM597.02 327.8c-11.73 0-38.58-1.21-38.58-13.63 0-9.39 19.75-12.06 38.58-12.06 21.98 0 38.26 4.43 38.26 12.06 0 13.08-26.31 13.63-38.26 13.63Zm.07 42.52c33.48 0 54.75-5.27 72.29-14.12 17.55-8.85 27.63-25.39 27.63-42.36s-9.58-30.49-26.88-39.27c-17.49-8.87-39.56-12.75-73.04-12.75s-55.25 3.49-72.8 12.34c-17.55 8.85-27.25 23.08-27.25 39.68s10.04 33.51 27.49 42.36c17.46 8.85 39.26 14.12 72.56 14.12ZM143.62 133.46v126.08L0 259.59V133.6l143.62-.14Zm-90.15 44.02v38.22h39.91v-38.22H53.47ZM166.63 129.39v163.56h54.86V129.31l-54.86.08zM84.04 317.47l138.23-2.54v50.2H17.41l1.81-89.84h66.73l-1.91 42.18zM489.55 133.5v118.8s62.07 1.32 97.64-2.85c29.82-3.5 43.83-11.13 43.83-11.13l-11.8-41.12s-10.37 4.36-26.16 6.44c-21.36 2.82-46.79 2.02-46.79 2.02v-28.17h72.79v-44.06l-129.52.08ZM728.6 179.35l-35.48 2.06v-52.09H640.8v126.56h52.32v-27.31l34.9 1.61.58-50.83zM467.88 264.41l-222.12.3v47.81l81.19.05-2.97 53.53h64.82l-2.88-53.49 81.96.05v-48.25z" class="d"/><path d="M434.03 205.69c-27.16-5.2-40.25-15.79-43.08-28.05l67.96.25v-44.42l-204.18.02v44.37l66.94-.11c-2.32 10.35-14.5 22.47-43.1 27.57-15.03 2.68-29.96 3.51-29.96 3.51l13.72 45.87s36.1-.85 53.72-6.61c21.88-7.15 34.15-17.13 40.25-28.08 6.1 10.95 18.37 20.92 40.25 28.08 17.61 5.76 55.13 6.61 55.13 6.61l13.2-45.87s-14.67-.05-30.84-3.14Z" class="d"/></g></svg>