<svg xmlns="http://www.w3.org/2000/svg" width="888" height="720" overflow="hidden"><defs><clipPath id="a"><path d="M197-1h888v720H197z"/></clipPath></defs><g fill-rule="evenodd" clip-path="url(#a)" transform="translate(-197 1)"><path fill="#221613" d="M656 651.047 658.271 697 803 691.006 801.142 647ZM727 540.71c15.672 0 22.942 10.396 22.942 22.739 0 12.394-7.94 22.739-22.942 22.739-15.105 0-22.942-10.397-22.942-22.739 0-12.343 7.476-22.739 22.942-22.739m0 90.29c44.44 0 68-30.78 68-67.5S773.553 496 727 496c-45.832 0-68 30.78-68 67.5s23.148 67.5 68 67.5M492.065 639H444v76h190v-42.558l-141.935 1.127ZM476.082 584.934v-41.197h38.095v37.087c-10.973 2.62-24.896 3.75-38.095 4.11m38.095 39.655H559V501H431v124s43.478-.514 83.177-6.575v6.164ZM580 492h48v163h-48ZM810 492h48v223h-48ZM1028 539v-34.178h-46.382V489h-48.236v15.822H887V539s39.218-2.378 68.851-2.378C985.535 536.622 1028 539 1028 539M1035.85 679.51h-87.702v-9.622h87.702v9.622ZM900 635v83h48.148v-3.242h87.702V718H1084v-83H900ZM956.959 571.523c12.831 0 21.54 4.795 21.54 11.477s-8.709 11.528-21.54 11.528-21.54-4.795-21.54-11.528c0-6.682 8.709-11.477 21.54-11.477m.515 54.477c45.136 0 66.526-19.587 66.526-43s-19.22-43-66.526-43C910.891 540 891 559.587 891 583s20.921 43 66.474 43M1036 492h48v136h-48ZM198 623.428h79.265v15.33h-62.1v42.813l126.302-2.359V715h47.958v-76.242h-64.201v-15.33H407V582H198ZM336.743 575l46.187-.205C393.434 533.554 394 498 394 498H216v42.419l129.136-1.434c-1.647 12.654-4.222 25.922-8.393 36.015"/><path fill="#E61E2B" d="M584.88 0 461 123.983V372h248.172L833 248.017V0Z"/></g></svg>